<svg id="Capa_1" enable-background="new 0 0 512.029 512.029" height="512" viewBox="0 0 512.029 512.029" width="512" xmlns="http://www.w3.org/2000/svg"><g id="XMLID_1222_"><g id="XMLID_1261_"><g id="XMLID_1948_"><path id="XMLID_1949_" d="m127.045 15.099-13.833 7.987c-72.893 42.085-97.868 135.293-55.783 208.186l112.286 194.485c42.085 72.893 135.293 97.868 208.186 55.783l13.833-7.987c18.24-10.531 24.489-33.853 13.958-52.093l-39.022-67.588c-10.531-18.24-33.853-24.489-52.093-13.958l-40.717 23.508c-8.749 5.051-19.937 2.054-24.988-6.696l-91.667-158.771c-5.051-8.749-2.054-19.937 6.696-24.988l40.717-23.508c18.24-10.531 24.489-33.853 13.958-52.093l-39.438-68.309c-10.53-18.239-33.853-24.488-52.093-13.958z" fill="#ff9171"/></g></g><path id="XMLID_45_" d="m366.67 353.873c-10.531-18.24-33.853-24.489-52.093-13.958l-40.683 23.488 75.577 130.903c9.704-3.214 19.228-7.454 28.429-12.766l13.833-7.987c18.24-10.531 24.489-33.853 13.958-52.093z" fill="#fff"/><g id="XMLID_43_"><path id="XMLID_44_" d="m163.948 172.94 40.67-23.481c18.24-10.531 24.489-33.853 13.958-52.093l-39.438-68.309c-10.53-18.24-33.853-24.489-52.093-13.958l-13.833 7.987c-9.196 5.309-17.626 11.434-25.259 18.227z" fill="#fff"/></g><g id="XMLID_1934_"><g id="XMLID_1935_"><g id="XMLID_1936_"><g id="XMLID_1946_"><path id="XMLID_1947_" d="m353.617 259.007c-2.565-4.443-3.435-9.865-2.003-15.212 8.723-32.557-10.667-66.142-43.224-74.866-10.694-2.866-17.041-13.858-14.175-24.552s13.858-17.041 24.552-14.175c53.912 14.445 86.02 70.058 71.574 123.97-2.865 10.694-13.858 17.041-24.552 14.175-5.347-1.433-9.607-4.897-12.172-9.34z" fill="#98eaf9"/></g><g id="XMLID_1944_"><path id="XMLID_1945_" d="m432.025 280.016c-2.565-4.443-3.435-9.865-2.003-15.212 20.308-75.792-24.831-153.974-100.622-174.283-10.694-2.866-17.041-13.858-14.175-24.552s13.858-17.041 24.552-14.175c97.146 26.03 155.003 126.241 128.973 223.387-2.866 10.694-13.858 17.041-24.552 14.175-5.348-1.433-9.608-4.897-12.173-9.34z" fill="#98eaf9"/></g></g></g></g><g id="XMLID_1068_"><path id="XMLID_1089_" d="m305.802 178.588c27.229 7.297 43.448 35.388 36.152 62.619-2.077 7.753-1.011 15.85 3.002 22.8s10.491 11.922 18.244 14c2.596.695 5.202 1.027 7.77 1.027 13.266 0 25.438-8.866 29.03-22.274 15.872-59.238-19.407-120.344-78.645-136.217-16.007-4.288-32.511 5.242-36.801 21.246-4.287 16.002 5.245 32.51 21.248 36.799zm-1.928-31.622c.694-2.593 2.357-4.759 4.682-6.101 1.548-.894 3.266-1.35 5.006-1.35.873 0 1.752.115 2.618.347 48.585 13.019 77.522 63.137 64.503 111.723-1.434 5.351-6.956 8.537-12.305 7.104-2.592-.695-4.759-2.357-6.101-4.681s-1.698-5.032-1.004-7.624c10.149-37.883-12.412-76.961-50.294-87.113-5.351-1.435-8.539-6.955-7.105-12.305z"/><path id="XMLID_1141_" d="m342.365 42.135c-15.999-4.287-32.511 5.243-36.8 21.247-2.077 7.752-1.011 15.85 3.002 22.8 4.013 6.951 10.493 11.922 18.245 13.999 70.464 18.882 112.431 91.571 93.551 162.036-2.077 7.753-1.011 15.85 3.002 22.8 4.012 6.95 10.491 11.922 18.244 13.999 2.595.695 5.202 1.027 7.77 1.027 13.265 0 25.436-8.865 29.03-22.273 27.457-102.473-33.571-208.178-136.044-235.635zm116.726 230.457c-1.434 5.352-6.951 8.539-12.306 7.104-2.592-.695-4.758-2.356-6.099-4.68-.001 0-.001 0-.001-.001-1.342-2.324-1.698-5.032-1.004-7.624 21.734-81.117-26.576-164.794-107.693-186.53-5.351-1.434-8.538-6.954-7.104-12.304 1.202-4.484 5.272-7.448 9.707-7.448.858 0 1.73.111 2.599.343 91.818 24.605 146.503 119.321 121.901 211.14z"/><path id="XMLID_1144_" d="m375.331 348.873c-13.271-22.985-42.766-30.892-65.753-17.619l-40.718 23.508c-1.916 1.107-4.149 1.403-6.293.828-2.14-.573-3.928-1.946-5.035-3.864l-91.666-158.771c-1.107-1.919-1.402-4.153-.828-6.293.573-2.14 1.945-3.928 3.863-5.035l40.717-23.508c22.985-13.271 30.889-42.768 17.619-65.753l-39.438-68.309c-13.27-22.986-42.767-30.888-65.753-17.619l-13.833 7.987c-77.553 44.775-104.219 144.295-59.445 221.847l33.69 58.352c2.761 4.783 8.876 6.421 13.66 3.66 4.783-2.761 6.422-8.877 3.66-13.66l-33.689-58.352c-32.129-55.648-22.298-124.191 19.598-168.775l65.463 113.385c-2.514 3.068-4.374 6.659-5.431 10.605-1.956 7.3-.952 14.924 2.827 21.469l91.666 158.771c3.778 6.544 9.879 11.226 17.18 13.182 3.945 1.058 7.985 1.243 11.899.599l65.077 112.717c-22.649 5.367-46.41 5.074-69.525-1.119-36.741-9.845-67.45-33.408-86.468-66.35l-33.599-58.195c-2.762-4.784-8.877-6.422-13.66-3.66-4.783 2.761-6.422 8.877-3.66 13.66l33.599 58.195c21.689 37.568 56.711 64.44 98.612 75.668 13.992 3.749 28.19 5.604 42.298 5.604 28.14 0 55.914-7.381 80.938-21.828l13.833-7.987c11.135-6.429 19.1-16.809 22.427-29.228 3.328-12.419 1.62-25.391-4.809-36.525zm-257.119-317.127 13.833-7.987c6.508-3.758 14.091-4.755 21.349-2.811 7.259 1.945 13.326 6.601 17.084 13.109l39.438 68.309c7.756 13.435 3.137 30.676-10.298 38.433l-32.057 18.508-66.794-115.69c5.438-4.32 11.254-8.296 17.445-11.871zm281.63 416.064c-1.944 7.259-6.601 13.326-13.108 17.084l-13.833 7.987c-6.156 3.554-12.502 6.62-18.991 9.192l-66.389-114.99 32.058-18.508c13.436-7.756 30.676-3.136 38.433 10.298l39.021 67.588c3.757 6.508 4.755 14.09 2.809 21.349z"/><path id="XMLID_1148_" d="m113.725 318.534c-2.64 0-5.21 1.07-7.08 2.93-1.86 1.86-2.92 4.43-2.92 7.07 0 2.63 1.06 5.21 2.92 7.07 1.87 1.86 4.45 2.93 7.08 2.93s5.21-1.07 7.07-2.93 2.93-4.44 2.93-7.07c0-2.64-1.07-5.21-2.93-7.07-1.86-1.861-4.44-2.93-7.07-2.93z"/></g></g></svg>