<?xml version="1.0" encoding="iso-8859-1"?>
<!-- Generator: Adobe Illustrator 19.0.0, SVG Export Plug-In . SVG Version: 6.00 Build 0)  -->
<svg version="1.1" id="Capa_1" xmlns="http://www.w3.org/2000/svg" xmlns:xlink="http://www.w3.org/1999/xlink" x="0px" y="0px"
	 viewBox="0 0 512 512" style="enable-background:new 0 0 512 512;" xml:space="preserve">
<path style="fill:#AE85CC;" d="M360,16.005c-83.813,0-152,68.187-152,152s68.187,152,152,152s152-68.187,152-152
	S443.813,16.005,360,16.005z"/>
<path style="fill:#F3F1F1;" d="M450.4,192.804l-13.669-10.252c4.611-8.955,7.269-19.398,7.269-30.548c0-33.084-23.327-60-52-60
	s-52,26.916-52,60s23.327,60,52,60c11.018,0,21.239-3.986,29.657-10.757L436,212.005c3.535,2.651,8.549,1.935,11.2-1.6l4.8-6.4
	C454.651,200.47,453.934,195.455,450.4,192.804z M392,188.005c-15.439,0-28-16.149-28-36s12.561-36,28-36s28,16.149,28,36
	c0,5.685-1.034,11.064-2.867,15.85l-5.133-3.85c-3.535-2.651-8.549-1.935-11.2,1.6l-4.8,6.4c-2.651,3.535-1.934,8.549,1.6,11.2
	l3.679,2.759C398.373,187.281,395.252,188.005,392,188.005z"/>
<path style="fill:#9CC445;" d="M152,16.005c-83.813,0-152,68.187-152,152s68.187,152,152,152s152-68.187,152-152
	S235.813,16.005,152,16.005z"/>
<path style="fill:#86AD32;" d="M176,312.005c-83.813,0-152-68.187-152-152c0-62.587,38.026-116.453,92.185-139.727
	C49.599,36.423,0,96.525,0,168.005c0,83.813,68.187,152,152,152c21.226,0,41.447-4.38,59.815-12.273
	C200.325,310.517,188.334,312.005,176,312.005z"/>
<path style="fill:#F3F1F1;" d="M180,116.005v-8c0-4.418-3.582-8-8-8h-68c-6.627,0-12,5.373-12,12v96c0,4.418,3.582,8,8,8h8
	c4.418,0,8-3.582,8-8v-36h40c4.418,0,8-3.582,8-8v-8c0-4.418-3.582-8-8-8h-40v-24h56C176.418,124.005,180,120.423,180,116.005z"/>
<path style="fill:#FFC44F;" d="M256,176.005c-83.813,0-152,68.187-152,152c0,42.029,17.417,82.112,47.964,110.809l-15.554,46.661
	c-2.161,6.481,4.659,12.647,10.9,9.813l55.059-25.027c17.133,6.468,35.157,9.744,53.631,9.744c83.813,0,152-68.187,152-152
	S339.813,176.005,256,176.005z"/>
<path style="fill:#FFB357;" d="M160.411,485.474l15.554-46.661C145.417,410.117,128,370.034,128,328.005
	c0-79.775,61.775-145.389,140-151.527c-3.96-0.311-7.961-0.473-12-0.473c-83.813,0-152,68.187-152,152
	c0,42.029,17.417,82.112,47.964,110.809l-15.554,46.661c-2.161,6.481,4.659,12.646,10.9,9.813l12.86-5.846
	C159.918,488.186,159.955,486.84,160.411,485.474z"/>
<path style="fill:#F3F1F1;" d="M305.789,380.526l7.155-3.578c3.952-1.976,5.553-6.781,3.578-10.733L300,332.005h-0.583
	l-32.683-65.366c-2.344-4.687-7.509-7.384-12.839-6.45c-3.83,0.671-7.043,3.282-8.782,6.759L212,332.005v1.167l-16.522,33.043
	c-1.976,3.952-0.374,8.757,3.578,10.733l7.156,3.578c3.952,1.976,8.757,0.374,10.733-3.578l10.472-20.944h57.167l10.472,20.944
	C297.032,380.901,301.837,382.502,305.789,380.526z M239.417,332.005L256,298.838l16.584,33.167H239.417z"/>
<g>
</g>
<g>
</g>
<g>
</g>
<g>
</g>
<g>
</g>
<g>
</g>
<g>
</g>
<g>
</g>
<g>
</g>
<g>
</g>
<g>
</g>
<g>
</g>
<g>
</g>
<g>
</g>
<g>
</g>
</svg>
