<svg id="Capa_1" enable-background="new 0 0 512.01 512.01" height="512" viewBox="0 0 512.01 512.01" width="512" xmlns="http://www.w3.org/2000/svg" xmlns:xlink="http://www.w3.org/1999/xlink"><linearGradient id="SVGID_1_" gradientUnits="userSpaceOnUse" x1="13.191" x2="454.832" y1="498.835" y2="57.194"><stop offset="0" stop-color="#fd3a84"/><stop offset="1" stop-color="#ffa68d"/></linearGradient><g><g><path d="m317.01.016c-107.523 0-195 87.477-195 195 0 37.492 10.646 72.541 29.059 102.3l-137.878 137.88c-17.586 17.584-17.59 46.052 0 63.64 17.544 17.545 46.093 17.546 63.639 0l137.878-137.88c29.76 18.414 64.809 29.061 102.302 29.061 107.523 0 195-87.477 195-195s-87.476-195.001-195-195.001zm-261.393 477.606c-5.85 5.849-15.365 5.849-21.213 0-5.863-5.863-5.863-15.35 0-21.213l134.589-134.591c6.52 7.6 13.613 14.693 21.213 21.214zm261.393-117.606c-90.981 0-165-74.019-165-165s74.019-165 165-165 165 74.019 165 165-74.018 165-165 165zm0-180.002c-8.284 0-15 6.716-15 15v60c0 8.284 6.716 15 15 15s15-6.716 15-15v-60c0-8.284-6.716-15-15-15zm0-119.998c-74.439 0-135 60.561-135 135s60.561 135 135 135 135-60.561 135-135-60.56-135-135-135zm0 240c-57.897 0-105-47.103-105-105s47.103-105 105-105 105 47.103 105 105-47.102 105-105 105zm-.001-150.002c8.284 0 15-6.716 15-15s-6.716-15-15-15-15 6.716-15 15c0 8.285 6.716 15 15 15z" fill="url(#SVGID_1_)"/></g></g></svg>